<?xml version="1.0" encoding="utf-8"?>
<!-- Generator: Adobe Illustrator 27.0.0, SVG Export Plug-In . SVG Version: 6.00 Build 0)  -->
<svg version="1.1" id="Layer_1" xmlns="http://www.w3.org/2000/svg" xmlns:xlink="http://www.w3.org/1999/xlink" x="0px" y="0px"
	 viewBox="0 0 93.9 93.9" style="enable-background:new 0 0 93.9 93.9;" xml:space="preserve">
<style type="text/css">
	.st0{fill:#1E2832;}
	.st1{fill:#FFFFFF;}
</style>
<rect class="st0" width="93.9" height="93.9"/>
<path class="st1" d="M47,30.1c-9.3,0-16.9,7.5-16.9,16.9c0,9.3,7.5,16.9,16.9,16.9c9.3,0,16.9-7.5,16.9-16.9S56.4,30.1,47,30.1z
	 M47,57.9c-6,0-11-4.9-11-11s4.9-11,11-11s11,4.9,11,11S53.1,57.9,47,57.9L47,57.9z M68.5,29.4c0,2.2-1.8,3.9-3.9,3.9
	c-2.2,0-3.9-1.8-3.9-3.9c0-2.2,1.8-3.9,3.9-3.9C66.8,25.4,68.5,27.2,68.5,29.4z M79.7,33.4c-0.2-5.3-1.5-9.9-5.3-13.8
	c-3.8-3.8-8.5-5.1-13.8-5.3c-5.4-0.3-21.7-0.3-27.2,0c-5.3,0.2-9.9,1.5-13.8,5.3s-5.1,8.5-5.3,13.8c-0.3,5.4-0.3,21.7,0,27.2
	c0.2,5.3,1.5,9.9,5.3,13.8c3.9,3.8,8.5,5.1,13.8,5.3c5.4,0.3,21.7,0.3,27.2,0c5.3-0.2,9.9-1.5,13.8-5.3c3.8-3.8,5.1-8.5,5.3-13.8
	C80,55.1,80,38.8,79.7,33.4L79.7,33.4z M72.7,66.4c-1.1,2.9-3.4,5.1-6.3,6.3C62.1,74.4,51.8,74,47,74s-15.1,0.4-19.4-1.3
	c-2.9-1.1-5.1-3.4-6.3-6.3C19.6,62.1,20,51.8,20,47c0-4.8-0.4-15.1,1.3-19.4c1.1-2.9,3.4-5.1,6.3-6.3C31.9,19.6,42.2,20,47,20
	s15.1-0.4,19.4,1.3c2.9,1.1,5.1,3.4,6.3,6.3C74.4,31.9,74,42.2,74,47C74,51.7,74.4,62,72.7,66.4z"/>
</svg>
