<?xml version="1.0" encoding="utf-8"?>
<!-- Generator: Adobe Illustrator 27.0.0, SVG Export Plug-In . SVG Version: 6.00 Build 0)  -->
<svg version="1.1" id="Layer_1" xmlns="http://www.w3.org/2000/svg" xmlns:xlink="http://www.w3.org/1999/xlink" x="0px" y="0px"
	 viewBox="0 0 319.3 94.1" style="enable-background:new 0 0 319.3 94.1;" xml:space="preserve">
<style type="text/css">
	.st0{fill:#1E2832;}
	.st1{fill:#FFFFFF;}
</style>
<rect y="0.2" class="st0" width="319.3" height="93.9"/>
<path class="st1" d="M56.8,68.4H48L30.9,40.4v28.1h-8.8V25.8h8.8l17.1,28.1V25.8h8.8V68.4z"/>
<path class="st1" d="M99.5,48.1c0,4.2-0.7,7.9-2.2,11c-1.5,3.2-3.6,5.6-6.4,7.3C88.2,68.2,85,69,81.4,69c-3.5,0-6.7-0.8-9.5-2.5
	c-2.8-1.7-4.9-4.1-6.4-7.3s-2.3-6.8-2.3-10.9v-2.1c0-4.2,0.8-7.9,2.3-11.1c1.5-3.2,3.7-5.6,6.4-7.4c2.8-1.7,5.9-2.6,9.5-2.6
	c3.6,0,6.7,0.9,9.5,2.6c2.8,1.7,4.9,4.2,6.4,7.4c1.5,3.2,2.3,6.9,2.3,11.1V48.1z M90.6,46.2c0-4.5-0.8-7.9-2.4-10.2
	c-1.6-2.3-3.9-3.5-6.9-3.5c-2.9,0-5.2,1.1-6.8,3.4c-1.6,2.3-2.4,5.7-2.4,10.1v2.1c0,4.4,0.8,7.7,2.4,10.1c1.6,2.4,3.9,3.6,6.9,3.6
	c2.9,0,5.2-1.2,6.8-3.5s2.4-5.7,2.4-10.1V46.2z"/>
<path class="st1" d="M139.2,56.1l5.7-30.4h8.8l-9.5,42.7h-8.8l-6.9-28.5l-6.9,28.5h-8.8l-9.5-42.7h8.8l5.8,30.3l7-30.3h7.4
	L139.2,56.1z"/>
<path class="st1" d="M203.7,32.9h-13.1v35.5h-8.8V32.9h-12.9v-7.1h34.7V32.9z"/>
<path class="st1" d="M224.5,52.8h-7v15.6h-8.8V25.8h15.8c5,0,8.9,1.1,11.7,3.4c2.7,2.2,4.1,5.4,4.1,9.5c0,2.9-0.6,5.3-1.9,7.3
	s-3.2,3.5-5.7,4.6l9.2,17.4v0.4h-9.4L224.5,52.8z M217.5,45.7h7.1c2.2,0,3.9-0.6,5.1-1.7c1.2-1.1,1.8-2.7,1.8-4.6
	c0-2-0.6-3.6-1.7-4.7s-2.9-1.7-5.3-1.7h-7.1V45.7z"/>
<path class="st1" d="M256.3,68.4h-8.8V25.8h8.8V68.4z"/>
<path class="st1" d="M273.3,53.4v15h-8.8V25.8h16.6c3.2,0,6,0.6,8.5,1.8s4.3,2.8,5.6,5c1.3,2.2,2,4.6,2,7.4c0,4.2-1.4,7.5-4.3,9.9
	c-2.9,2.4-6.8,3.6-11.9,3.6H273.3z M273.3,46.3h7.9c2.3,0,4.1-0.5,5.3-1.6c1.2-1.1,1.8-2.7,1.8-4.7c0-2.1-0.6-3.8-1.8-5.1
	s-2.9-2-5.1-2h-8.1V46.3z"/>
</svg>
