<?xml version="1.0" encoding="utf-8"?>
<!-- Generator: Adobe Illustrator 27.0.0, SVG Export Plug-In . SVG Version: 6.00 Build 0)  -->
<svg version="1.1" id="Layer_1" xmlns="http://www.w3.org/2000/svg" xmlns:xlink="http://www.w3.org/1999/xlink" x="0px" y="0px"
	 viewBox="0 0 319.3 93.9" style="enable-background:new 0 0 319.3 93.9;" xml:space="preserve">
<style type="text/css">
	.st0{fill:#E76F51;}
	.st1{fill:#FFFFFF;}
</style>
<rect class="st0" width="319.3" height="93.9"/>
<path class="st1" d="M56.8,68.2H48l-17.1-28v28.1h-8.8V25.6h8.8L48,53.7V25.6h8.8V68.2z"/>
<path class="st1" d="M99.5,47.9c0,4.2-0.7,7.9-2.2,11c-1.5,3.2-3.6,5.6-6.4,7.3c-2.8,1.7-5.9,2.6-9.5,2.6c-3.5,0-6.7-0.8-9.5-2.5
	S67,62.2,65.5,59s-2.3-6.8-2.3-10.9V46c0-4.2,0.8-7.9,2.3-11.1c1.5-3.2,3.7-5.6,6.4-7.4c2.8-1.7,5.9-2.6,9.5-2.6s6.7,0.9,9.5,2.6
	s4.9,4.2,6.4,7.4s2.3,6.9,2.3,11.1v1.9H99.5z M90.6,46c0-4.5-0.8-7.9-2.4-10.2s-3.9-3.5-6.9-3.5c-2.9,0-5.2,1.1-6.8,3.4
	c-1.6,2.3-2.4,5.7-2.4,10.1v2.1c0,4.4,0.8,7.7,2.4,10.1c1.6,2.4,3.9,3.6,6.9,3.6c2.9,0,5.2-1.2,6.8-3.5s2.4-5.7,2.4-10.1V46z"/>
<path class="st1" d="M139.2,55.9l5.7-30.4h8.8l-9.5,42.7h-8.8l-6.9-28.5l-6.9,28.5h-8.8l-9.5-42.7h8.8l5.8,30.3l7-30.3h7.4
	L139.2,55.9z"/>
<path class="st1" d="M203.7,32.7h-13.1v35.5h-8.8V32.7h-12.9v-7.1h34.7v7.1H203.7z"/>
<path class="st1" d="M224.5,52.6h-7v15.6h-8.8V25.6h15.8c5,0,8.9,1.1,11.7,3.4c2.7,2.2,4.1,5.4,4.1,9.5c0,2.9-0.6,5.3-1.9,7.3
	s-3.2,3.5-5.7,4.6l9.2,17.4v0.4h-9.4L224.5,52.6z M217.5,45.5h7.1c2.2,0,3.9-0.6,5.1-1.7c1.2-1.1,1.8-2.7,1.8-4.6
	c0-2-0.6-3.6-1.7-4.7s-2.9-1.7-5.3-1.7h-7.1L217.5,45.5L217.5,45.5z"/>
<path class="st1" d="M256.3,68.2h-8.8V25.6h8.8V68.2z"/>
<path class="st1" d="M273.3,53.2v15h-8.8V25.6h16.6c3.2,0,6,0.6,8.5,1.8s4.3,2.8,5.6,5c1.3,2.2,2,4.6,2,7.4c0,4.2-1.4,7.5-4.3,9.9
	C290,52,286,53.2,281,53.2H273.3z M273.3,46.1h7.9c2.3,0,4.1-0.5,5.3-1.6c1.2-1.1,1.8-2.7,1.8-4.7c0-2.1-0.6-3.8-1.8-5.1
	s-2.9-2-5.1-2h-8.1L273.3,46.1L273.3,46.1z"/>
</svg>
