<?xml version="1.0" encoding="utf-8"?>
<!-- Generator: Adobe Illustrator 27.0.0, SVG Export Plug-In . SVG Version: 6.00 Build 0)  -->
<svg version="1.1" id="Layer_1" xmlns="http://www.w3.org/2000/svg" xmlns:xlink="http://www.w3.org/1999/xlink" x="0px" y="0px"
	 viewBox="0 0 93.9 93.9" style="enable-background:new 0 0 93.9 93.9;" xml:space="preserve">
<style type="text/css">
	.st0{fill:#1E2832;}
	.st1{fill:#FFFFFF;}
</style>
<rect class="st0" width="93.9" height="93.9"/>
<path class="st1" d="M82,39.7c-6.9,0-13.6-2.1-19.2-6.1v28c0,14.1-11.4,25.5-25.5,25.5S11.8,75.7,11.8,61.6s11.4-25.5,25.5-25.5
	c1.2,0,2.3,0.1,3.5,0.2v14.1c-6.2-1.9-12.7,1.5-14.7,7.6c-1.9,6.2,1.5,12.7,7.6,14.7c6.2,1.9,12.7-1.5,14.7-7.6
	c0.4-1.1,0.5-2.3,0.5-3.5V6.9h13.8c0,1.2,0.1,2.3,0.3,3.5l0,0c1,5.2,4,9.7,8.4,12.6c3.1,2.1,6.8,3.2,10.5,3.2v13.5H82z"/>
</svg>
