<?xml version="1.0" encoding="utf-8"?>
<!-- Generator: Adobe Illustrator 27.0.0, SVG Export Plug-In . SVG Version: 6.00 Build 0)  -->
<svg version="1.1" id="Layer_1" xmlns="http://www.w3.org/2000/svg" xmlns:xlink="http://www.w3.org/1999/xlink" x="0px" y="0px"
	 viewBox="0 0 93.9 93.9" style="enable-background:new 0 0 93.9 93.9;" xml:space="preserve">
<style type="text/css">
	.st0{fill:#1E2832;}
	.st1{fill:#FFFFFF;}
</style>
<rect class="st0" width="93.9" height="93.9"/>
<path class="st1" d="M80.6,30c-0.8-3-3.2-5.4-6.2-6.2C68.9,22.3,47,22.3,47,22.3s-21.9,0-27.4,1.5c-3,0.8-5.4,3.2-6.2,6.2
	c-1.5,5.5-1.5,17-1.5,17s0,11.5,1.5,17c0.8,3,3.2,5.3,6.2,6.1c5.5,1.5,27.4,1.5,27.4,1.5s21.9,0,27.4-1.5c3-0.8,5.4-3.1,6.2-6.1
	c1.5-5.5,1.5-17,1.5-17S82,35.5,80.6,30z M39.8,57.5V36.6L58.1,47L39.8,57.5L39.8,57.5z"/>
</svg>
