<?xml version="1.0" encoding="utf-8"?>
<!-- Generator: Adobe Illustrator 27.0.0, SVG Export Plug-In . SVG Version: 6.00 Build 0)  -->
<svg version="1.1" id="Layer_1" xmlns="http://www.w3.org/2000/svg" xmlns:xlink="http://www.w3.org/1999/xlink" x="0px" y="0px"
	 viewBox="0 0 384.1 415.8" style="enable-background:new 0 0 384.1 415.8;" xml:space="preserve">
<style type="text/css">
	.st0{opacity:0.3;}
</style>
<path d="M169.5,406.7c12.5,12.5,32.8,12.5,45.3,0l160-160c12.5-12.5,12.5-32.8,0-45.3s-32.8-12.5-45.3,0L192.1,338.8L54.7,201.5
	c-12.5-12.5-32.8-12.5-45.3,0s-12.5,32.8,0,45.3L169.5,406.7L169.5,406.7z"/>
<path class="st0" d="M9.5,54.7l160,160c12.5,12.5,32.8,12.5,45.3,0l160-160c12.5-12.5,12.5-32.8,0-45.3s-32.8-12.5-45.3,0
	L192.1,146.8L54.7,9.5C42.2-3,21.9-3,9.4,9.5S-3.1,42.3,9.5,54.7L9.5,54.7z"/>
</svg>
