<?xml version="1.0" encoding="utf-8"?>
<!-- Generator: Adobe Illustrator 27.0.0, SVG Export Plug-In . SVG Version: 6.00 Build 0)  -->
<svg version="1.1" id="Layer_1" xmlns="http://www.w3.org/2000/svg" xmlns:xlink="http://www.w3.org/1999/xlink" x="0px" y="0px"
	 viewBox="0 0 124.8 19.8" style="enable-background:new 0 0 124.8 19.8;" xml:space="preserve">
<style type="text/css">
	.st0{fill:#F89B4F;}
	.st1{fill:#DDDDDD;}
</style>
<path class="st0" d="M11.4,1l2.4,4.9l5.5,0.8c1,0.1,1.4,1.3,0.7,2l-4,3.8l1,5.5c0.2,1-0.9,1.7-1.7,1.3l-4.9-2.5l-4.9,2.6
	C4.6,19.7,3.6,19,3.8,18l0.9-5.4l-4-3.8C0,8.1,0.4,6.8,1.4,6.7l5.5-0.8L9.3,1C9.7,0.1,11,0.1,11.4,1z"/>
<path class="st1" d="M37.5,1l2.4,4.9l5.5,0.8c1,0.1,1.4,1.3,0.7,2l-4,3.8L43,18c0.2,1-0.9,1.7-1.7,1.3l-4.9-2.5l-4.9,2.6
	c-0.9,0.5-1.9-0.3-1.7-1.3l0.9-5.4l-4-3.8c-0.7-0.7-0.3-1.9,0.7-2l5.5-0.8L35.3,1C35.8,0.1,37.1,0.1,37.5,1z"/>
<path class="st1" d="M63.5,1L66,5.9l5.5,0.8c1,0.1,1.4,1.3,0.7,2l-4,3.8l0.9,5.4c0.2,1-0.9,1.7-1.7,1.3l-4.9-2.5l-4.9,2.6
	c-0.9,0.5-1.9-0.3-1.7-1.3l0.9-5.4l-4-3.8c-0.7-0.7-0.3-1.9,0.7-2L59,6l2.4-5C61.8,0.1,63.1,0.1,63.5,1z"/>
<path class="st1" d="M89.6,1L92,5.9l5.5,0.8c1,0.1,1.4,1.3,0.7,2l-4,3.8l0.9,5.4c0.2,1-0.9,1.7-1.7,1.3l-4.9-2.5l-4.9,2.6
	c-0.9,0.5-1.9-0.3-1.7-1.3l0.9-5.4l-4-3.8c-0.7-0.7-0.3-1.9,0.7-2L85,5.9L87.4,1C87.9,0.1,89.1,0.1,89.6,1z"/>
<path class="st1" d="M115.6,1l2.4,4.9l5.5,0.8c1,0.1,1.4,1.3,0.7,2l-4,3.8l0.9,5.4c0.2,1-0.9,1.7-1.7,1.3l-4.9-2.5l-4.9,2.6
	c-0.9,0.5-1.9-0.3-1.7-1.3l0.9-5.4l-4-3.8c-0.7-0.7-0.3-1.9,0.7-2L111,6l2.4-4.9C113.9,0.1,115.2,0.1,115.6,1z"/>
</svg>
