<svg xmlns="http://www.w3.org/2000/svg" viewBox="0 0 424.44 130.47"><defs><style>.cls-1{fill:none;}.cls-2{fill:#025ca0;}.cls-3{fill:#fff;}.cls-4{fill:#76c5f0;}</style></defs><g id="Layer_2" data-name="Layer 2"><g id="Layer_1-2" data-name="Layer 1"><rect class="cls-1" width="424.44" height="130.47"/><g id="Layer_2-2" data-name="Layer 2"><g id="Layer_1-2-2" data-name="Layer 1-2"><path class="cls-2" d="M129.22,115.74v1.8H97.8v-1.8h2a7.66,7.66,0,0,0,4.21-1,4.34,4.34,0,0,0,1.77-2.33c.32-.78.49-2.82.49-6.13V62.85c0-3.38-.17-5.49-.49-6.33a4.67,4.67,0,0,0-2-2.21,7.29,7.29,0,0,0-4-1h-2v-1.8h31.44v1.8h-2a7.74,7.74,0,0,0-4.21,1,4.52,4.52,0,0,0-1.82,2.33q-.48,1.17-.48,6.14v43.4q0,5.05.51,6.32a4.79,4.79,0,0,0,2,2.22,7.34,7.34,0,0,0,4,1Z"/><path class="cls-2" d="M153.9,51.56l29.65,40.92V64.11c0-4-.52-6.63-1.55-8q-2.13-2.82-7.14-2.72v-1.8h19.85v1.8a14,14,0,0,0-5.11,1.38,5.43,5.43,0,0,0-2,2.78,20.36,20.36,0,0,0-.73,6.59v54.94h-1.52l-40.67-55v41.94q0,5.7,2.37,7.69a8.17,8.17,0,0,0,5.43,2h1.42v1.8H132.58v-1.8c3.31,0,5.62-.78,6.92-2.24s1.95-3.94,1.95-7.45V59.49l-1.29-1.75a12.08,12.08,0,0,0-3.37-3.46,9.33,9.33,0,0,0-4.21-.92v-1.8Z"/><path class="cls-2" d="M254.1,51.56V69.41h-1.6a29.84,29.84,0,0,0-3.15-8.88,12.41,12.41,0,0,0-4.74-4.3c-1.12-.59-3.09-.89-5.89-.88h-4.48v50.9q0,5.06.51,6.32a4.79,4.79,0,0,0,2,2.22,7.54,7.54,0,0,0,4,.95h2v1.8h-31.4v-1.8h2a7.66,7.66,0,0,0,4.21-1,4.56,4.56,0,0,0,1.81-2.33q.49-1.17.49-6.13V55.35h-4.34q-6.09,0-8.82,2.82-3.87,3.94-4.88,11.24h-1.68V51.56Z"/><path class="cls-2" d="M282.1,55.35V82.17h1.25q5.72,0,8.29-3.94t3.28-11.63h1.68v34.57h-1.68a28.12,28.12,0,0,0-2.24-9.25,10.36,10.36,0,0,0-4-4.84,13.88,13.88,0,0,0-6.56-1.24v18.61q0,5.44.42,6.66a4,4,0,0,0,1.58,2,6.77,6.77,0,0,0,3.72.78h3.59q8.42,0,13.49-4.28t7.29-13h1.64l-2.7,21h-52v-1.8h2a7.66,7.66,0,0,0,4.21-1,4.38,4.38,0,0,0,1.77-2.33c.32-.78.49-2.82.49-6.13V62.85a40.41,40.41,0,0,0-.22-5.5,4.82,4.82,0,0,0-1.64-2.63,7.2,7.2,0,0,0-4.61-1.36h-2v-1.8h50.3V71.07h-1.68q-1.29-7.15-3.62-10.27a13.36,13.36,0,0,0-6.58-4.57c-1.65-.59-4.75-.89-9.3-.88Z"/><path class="cls-2" d="M356.24,78.85l16.58,27q4.11,6.72,5.87,8.15a8,8,0,0,0,4.14,1.73v1.8H353.54v-1.8c2.33-.2,3.84-.59,4.52-1.17a2.72,2.72,0,0,0,1-2.14,3.78,3.78,0,0,0-.31-1.56,53.14,53.14,0,0,0-3.1-5.45l-8.76-14.24-9.17,12.32q-4.12,5.6-4.12,7.59a3.87,3.87,0,0,0,1.06,2.62,6,6,0,0,0,3.15,1.75,15.21,15.21,0,0,0,3.81.3v1.8H318.53v-1.8a13.81,13.81,0,0,0,6.2-2.34q3-2.23,8.29-9.34l11.92-16L329.65,63.43q-3.76-6.09-4.29-6.76A8.68,8.68,0,0,0,323,54.38a9.27,9.27,0,0,0-3.19-1v-1.8h29.82v1.8h-1.51a5.48,5.48,0,0,0-3.59.9,2.85,2.85,0,0,0-1,2.26,4.69,4.69,0,0,0,.32,1.85l3.05,5.06,7.44,12.44,6.34-8.52q4.86-6.57,4.87-9.2a4.63,4.63,0,0,0-.69-2.43,4.77,4.77,0,0,0-2-1.75,9.6,9.6,0,0,0-4-.63v-1.8H381v1.8a11.6,11.6,0,0,0-4.21.7,11,11,0,0,0-3.43,2.46q-1.17,1.17-5.76,7.25Z"/><path class="cls-2" d="M389.83,51.67a6,6,0,0,1,3.12.9,6.21,6.21,0,0,1,2.4,2.6,7.65,7.65,0,0,1,0,7A6.23,6.23,0,0,1,393,64.75a5.87,5.87,0,0,1-6.32,0,6.17,6.17,0,0,1-2.33-2.58,7.53,7.53,0,0,1,0-7,6.35,6.35,0,0,1,5.48-3.5Zm0,1.15a5.09,5.09,0,0,0-2.61.76,5.18,5.18,0,0,0-2,2.15,6.22,6.22,0,0,0,0,5.81,5.18,5.18,0,0,0,2,2.15,4.86,4.86,0,0,0,5.28,0,5.31,5.31,0,0,0,2-2.15,6.34,6.34,0,0,0,0-5.81,5.25,5.25,0,0,0-2-2.15A5.07,5.07,0,0,0,389.83,52.82ZM387,62.51V55h2.31a5.19,5.19,0,0,1,1.75.21,1.76,1.76,0,0,1,.85.72,2,2,0,0,1,.32,1.1,2.08,2.08,0,0,1-.53,1.43,2,2,0,0,1-1.39.71,1.77,1.77,0,0,1,.58.4,8.82,8.82,0,0,1,1,1.49l.84,1.47h-1.35l-.61-1.19a6.8,6.8,0,0,0-1.15-1.75,1.36,1.36,0,0,0-.89-.25h-.64v3.19Zm1.11-4.23h1.33a2,2,0,0,0,1.31-.32,1,1,0,0,0,.35-.83,1.11,1.11,0,0,0-.16-.59,1.14,1.14,0,0,0-.47-.4A3.48,3.48,0,0,0,389.4,56h-1.25Z"/><rect class="cls-2" x="36.35" y="50.91" width="51.85" height="66.63"/><circle class="cls-2" cx="56.35" cy="28.17" r="20"/><path class="cls-3" d="M88.2,53.43V115a30.91,30.91,0,0,1,0-61.59Z"/><path class="cls-4" d="M88.2,55.75v57a28.6,28.6,0,0,1,0-56.95Z"/></g></g></g></g></svg>