<svg xmlns="http://www.w3.org/2000/svg" viewBox="0 0 458.58 130.47"><defs><style>.cls-1{fill:none;}.cls-2{fill:#cf2724;}</style></defs><g id="Layer_2" data-name="Layer 2"><g id="Layer_1-2" data-name="Layer 1"><rect class="cls-1" width="458.58" height="130.47"/><g id="Layer_2-2" data-name="Layer 2"><g id="Layer_1-2-2" data-name="Layer 1-2"><path class="cls-2" d="M113.45,71.61c-8.29,8.08-21.13,13.25-35.51,13.25-25.12,0-45.49-15.75-45.49-35.2s20.37-35.2,45.49-35.2c14.32,0,27.09,5.12,35.42,13.12l-11,10.06c-5.62-6.27-14.58-10.42-20.65-10.42-17,0-25.85,10-25.85,22.44s9,22.45,25.85,22.45c6,0,14.69-4,20.33-10.07Zm44-22c0,11.19-11.79,20.27-26.35,20.27s-26.33-9.08-26.33-20.27,11.8-20.26,26.35-20.26S157.45,38.46,157.45,49.66Zm-14.88,0c0-5.81-5.14-10.52-11.47-10.52s-11.45,4.71-11.45,10.52,5.14,10.53,11.47,10.53,11.47-4.73,11.47-10.53Zm58.59,0H187.33l-1.15,6.57h9.37a11.82,11.82,0,0,1-9,4c-6.33,0-11.46-4.72-11.46-10.53s5.13-10.53,11.46-10.53A11.86,11.86,0,0,1,195.36,43l12.09-5.67c-4.83-4.81-12.39-7.89-20.88-7.89-14.55,0-26.35,9.07-26.35,20.26S172,69.92,186.57,69.92,213,60.86,213,49.66Zm42.93-19.28V44.61h-15.9V30.38h-13V67.85h13V53.71h15.9V67.85h13V30.38ZM274,56.77V30.38H261V67.85h26.67V56.77Zm64.43,11.08h-14.1l-2.9-5.74H307.51l-2.87,5.74h-14.1L307,30.38h14.92Zm-19.68-13.2-4.32-10.9-4.27,10.9h8.59Zm47.48-24.27V47.71S354,31.53,353,30.38h-12.4V67.53H353V50l13.24,17.88v-.32h12.37V30.38Zm16.54,2.75,3.37-2.07,4.25-4.87h-6Zm31,9.25L425.6,38s-4.5-8.38-19.44-8.38S384.8,34.55,384.8,41.78s4.26,9.27,13.33,10.2,11.45,3.41,11.45,5.46-2.05,3.33-4.58,3.33-3.86-.52-8.43-5.1l-11.49,4.66s2.49,8,19.46,8,21.91-7.58,21.91-13-7.22-9.56-13.17-10.42-11.58-1.22-11.58-4.78,8.53-5.42,12.09,2.22Zm-.21,34.45a5.67,5.67,0,0,1,.92-3.09H116.79A32,32,0,0,1,110,79.92H414.5a5.65,5.65,0,0,1-.92-3.09Zm11-.32A4.55,4.55,0,1,0,420,81.06h0a4.55,4.55,0,0,0,4.58-4.52v0Zm-.67,0A3.89,3.89,0,1,1,420,72.62h0a3.89,3.89,0,0,1,3.91,3.85v0Zm-2.62,2.58L420.08,77h-.89v2.12h-.65v-5h1.57c1,0,1.76.37,1.76,1.42a1.37,1.37,0,0,1-1.14,1.41l1.29,2.2Zm-2.07-2.63h.83c.78,0,1.21-.33,1.21-1s-.43-.9-1.21-.9h-.83Z"/><path d="M81.19,95.83h12v2.76h-4.3v12.33H85.45V98.59H81.19Zm20.38,4a3.76,3.76,0,0,0-3.31,1.86h0V95H94.89v16h3.32v-6.19a2.57,2.57,0,0,1,.55-1.68,1.77,1.77,0,0,1,1.43-.63c1.15,0,1.73.79,1.73,2.37V111h3.31V104.3c0-2.94-1.22-4.42-3.66-4.42Zm14.68,1.4a5.45,5.45,0,0,1,1.29,3.8v1.43h-7c.12,1.56,1.1,2.34,3,2.34a5.67,5.67,0,0,0,3.13-.84v2.4a8.2,8.2,0,0,1-3.89.8,5,5,0,0,1-5.49-4.45,4.44,4.44,0,0,1,0-1,5.71,5.71,0,0,1,1.49-4.22,5.19,5.19,0,0,1,3.83-1.57,4.67,4.67,0,0,1,3.64,1.39Zm-1.8,3.23c0-1.54-.62-2.31-1.87-2.31a1.78,1.78,0,0,0-1.39.66,3,3,0,0,0-.74,1.65Zm23.18-6.74a7.85,7.85,0,0,1,2,5.58,8,8,0,0,1-2.07,5.73,7.08,7.08,0,0,1-5.39,2.18,7,7,0,0,1-5.28-2.11,7.54,7.54,0,0,1-2-5.5A8.13,8.13,0,0,1,127,97.81a7.18,7.18,0,0,1,5.49-2.24,6.9,6.9,0,0,1,5.19,2.12Zm-1.58,5.74a5.89,5.89,0,0,0-1-3.66,3.27,3.27,0,0,0-2.73-1.34,3.43,3.43,0,0,0-2.87,1.38,5.56,5.56,0,0,0-1,3.55,5.41,5.41,0,0,0,1,3.55,3.35,3.35,0,0,0,2.75,1.3A3.4,3.4,0,0,0,135,107,5.47,5.47,0,0,0,136.05,103.46Zm12.68,2.85a2.59,2.59,0,0,1-.53,1.7,1.8,1.8,0,0,1-1.44.62c-1.2,0-1.81-.76-1.81-2.28v-6.21h-3.31v6.5q0,4.55,3.75,4.54a3.74,3.74,0,0,0,3.29-1.91h0v1.65H152V100.14h-3.32Zm10.21-9.44-3.32.94v2.33h-1.74v2.45h1.74v4.94c0,2.43,1.18,3.65,3.52,3.65a4.84,4.84,0,0,0,2.22-.39v-2.46a2.28,2.28,0,0,1-1.08.3c-.9,0-1.34-.56-1.34-1.68v-4.36h2.42v-2.45h-2.42ZM170.45,95h3.33v16h-3.33v-1.5h0a3.71,3.71,0,0,1-3.34,1.75,4.08,4.08,0,0,1-3.25-1.43,5.84,5.84,0,0,1-1.23-4,6.4,6.4,0,0,1,1.32-4.32,4.42,4.42,0,0,1,3.55-1.61,3,3,0,0,1,2.95,1.52h0Zm.06,9.9a2.57,2.57,0,0,0-.61-1.74,2.16,2.16,0,0,0-3-.15,2.79,2.79,0,0,0-.28.32,4,4,0,0,0-.62,2.39,3.44,3.44,0,0,0,.6,2.18,2.13,2.13,0,0,0,3.31,0,3.39,3.39,0,0,0,.63-2.14Zm15.56-3.47a5.38,5.38,0,0,1,1.52,4,5.73,5.73,0,0,1-1.57,4.24,5.83,5.83,0,0,1-4.31,1.56,5.76,5.76,0,0,1-4.26-1.52,6.24,6.24,0,0,1,.06-8.28,6,6,0,0,1,4.33-1.51A5.75,5.75,0,0,1,186.07,101.39Zm-1.87,4c0-2-.8-3-2.41-3a2.25,2.25,0,0,0-1.83.81,3.62,3.62,0,0,0-.65,2.3c0,2.07.83,3.1,2.5,3.1s2.39-1,2.39-3.14Zm15-4a5.38,5.38,0,0,1,1.52,4,5.73,5.73,0,0,1-1.57,4.24,5.83,5.83,0,0,1-4.31,1.56,5.74,5.74,0,0,1-4.23-1.51,6.24,6.24,0,0,1,.06-8.28A6,6,0,0,1,195,99.89a5.73,5.73,0,0,1,4.25,1.5Zm-1.86,4c0-2-.81-3-2.41-3a2.18,2.18,0,0,0-1.83.81,3.57,3.57,0,0,0-.66,2.3c0,2.07.84,3.1,2.51,3.1s2.43-1,2.43-3.14Zm8.91-3.3h0v-2h-3.33v10.83h3.33v-5.15a3.39,3.39,0,0,1,.61-2.16,2,2,0,0,1,1.69-.8,3,3,0,0,1,1.4.33v-3.06a2.08,2.08,0,0,0-.82-.13,2.88,2.88,0,0,0-2.84,2.19Zm19.38-6.31L231,110.87h-3.71l-1.07-3.36h-5.37l-1.06,3.36h-3.64l5.49-15.09Zm-.18,9.17-1.62-5.07a6.27,6.27,0,0,1-.25-1.36h-.08a6.58,6.58,0,0,1-.27,1.32L221.59,105Zm8.15-3.49a5.7,5.7,0,0,0-1.65,4.33,5.19,5.19,0,0,0,1.5,3.88,5.44,5.44,0,0,0,4,1.51,6.52,6.52,0,0,0,3.25-.65v-2.68a4.33,4.33,0,0,1-2.43.78,3,3,0,0,1-2.2-.81,3.56,3.56,0,0,1,0-4.56,3.1,3.1,0,0,1,2.38-.8,3.82,3.82,0,0,1,2.32.78v-2.86a5.85,5.85,0,0,0-2.76-.5A6.12,6.12,0,0,0,233.6,101.46Zm10.34,0a5.73,5.73,0,0,0-1.64,4.33,5.17,5.17,0,0,0,1.53,3.88,5.44,5.44,0,0,0,4,1.51,6.52,6.52,0,0,0,3.25-.65v-2.68a4.33,4.33,0,0,1-2.43.78,3,3,0,0,1-2.2-.81,3.56,3.56,0,0,1,0-4.56,3.08,3.08,0,0,1,2.27-.84,3.82,3.82,0,0,1,2.32.78v-2.82a5.78,5.78,0,0,0-2.75-.5,6.15,6.15,0,0,0-4.35,1.58Zm17.73-.18a5.45,5.45,0,0,1,1.29,3.8v1.38h-7c.12,1.56,1.1,2.34,3,2.34a5.67,5.67,0,0,0,3.13-.84v2.4a8.2,8.2,0,0,1-3.89.8,5,5,0,0,1-5.49-4.45,4.44,4.44,0,0,1,0-1,5.71,5.71,0,0,1,1.49-4.22A5.19,5.19,0,0,1,258,99.89a4.68,4.68,0,0,1,3.64,1.39Zm-1.79,3.18c0-1.54-.62-2.31-1.87-2.31a1.78,1.78,0,0,0-1.39.66,3,3,0,0,0-.71,1.65Zm11.83,1.15a4.11,4.11,0,0,0-.92-.64,12.7,12.7,0,0,0-1.2-.51l-.74-.24a3.14,3.14,0,0,1-.68-.28,1.45,1.45,0,0,1-.49-.36.74.74,0,0,1-.07-.9.87.87,0,0,1,.35-.28,2.18,2.18,0,0,1,.51-.17,3.18,3.18,0,0,1,.62-.06,5.43,5.43,0,0,1,2.76.74v-2.6a10.44,10.44,0,0,0-1.45-.32,10.11,10.11,0,0,0-1.45-.11,8,8,0,0,0-1.76.19,5,5,0,0,0-1.51.61,3.2,3.2,0,0,0-1,1.07,3,3,0,0,0-.39,1.56,3.2,3.2,0,0,0,.16,1.15,2.56,2.56,0,0,0,.5.86,3.23,3.23,0,0,0,.83.64,6.84,6.84,0,0,0,1.13.53c.26.1.54.2.83.28a7.41,7.41,0,0,1,.79.28,2.85,2.85,0,0,1,.6.37.72.72,0,0,1,.23.53.78.78,0,0,1-.51.73,3.06,3.06,0,0,1-1.4.25,5,5,0,0,1-1.54-.25,6.46,6.46,0,0,1-1.63-.73v2.69a9.21,9.21,0,0,0,3.29.55,8.43,8.43,0,0,0,1.87-.2,4.83,4.83,0,0,0,1.59-.62,3.31,3.31,0,0,0,1.1-1.1,3.43,3.43,0,0,0,.21-2.82,2.59,2.59,0,0,0-.63-.87Zm9.48,0a4.11,4.11,0,0,0-.92-.64,12.7,12.7,0,0,0-1.2-.51l-.74-.24a3.36,3.36,0,0,1-.68-.28,1.45,1.45,0,0,1-.49-.36.74.74,0,0,1-.07-.9.87.87,0,0,1,.35-.28,2.18,2.18,0,0,1,.51-.17,3.18,3.18,0,0,1,.62-.06,5.43,5.43,0,0,1,2.76.74v-2.6a10.44,10.44,0,0,0-1.45-.32,10.11,10.11,0,0,0-1.45-.11,8,8,0,0,0-1.76.19,5,5,0,0,0-1.51.61,3.35,3.35,0,0,0-1.05,1.07,3,3,0,0,0-.39,1.56,3.13,3.13,0,0,0,.17,1.14,2.42,2.42,0,0,0,.51.86,2.84,2.84,0,0,0,.82.64,6.84,6.84,0,0,0,1.13.53c.26.1.54.2.83.28a7.41,7.41,0,0,1,.79.28,2.85,2.85,0,0,1,.6.37.72.72,0,0,1,.23.53.78.78,0,0,1-.51.73,3.06,3.06,0,0,1-1.4.25,5,5,0,0,1-1.54-.25,6.46,6.46,0,0,1-1.63-.73v2.69a9.44,9.44,0,0,0,3.29.55,8.43,8.43,0,0,0,1.87-.2,4.82,4.82,0,0,0,1.57-.62,3.31,3.31,0,0,0,1.1-1.1,3.43,3.43,0,0,0,.21-2.82,2.49,2.49,0,0,0-.57-.86Zm12.2-4.19a5.36,5.36,0,0,1,1.53,4,5.74,5.74,0,0,1-1.57,4.24,5.83,5.83,0,0,1-4.31,1.56,5.76,5.76,0,0,1-4.24-1.51,6.24,6.24,0,0,1,.06-8.28,6,6,0,0,1,4.32-1.51,5.73,5.73,0,0,1,4.21,1.47Zm-1.86,4c0-2-.8-3-2.41-3a2.25,2.25,0,0,0-1.83.81,3.62,3.62,0,0,0-.65,2.3c0,2.07.83,3.1,2.5,3.1s2.39-1.06,2.39-3.17Zm8.91-3.3h0v-2h-3.32v10.8h3.33v-5.15a3.39,3.39,0,0,1,.61-2.16,2,2,0,0,1,1.7-.8,3,3,0,0,1,1.4.33v-3.06a2.16,2.16,0,0,0-.83-.13,2.88,2.88,0,0,0-2.88,2.19Zm10.15,4.58a8.92,8.92,0,0,0-.35,1.42h0a8.77,8.77,0,0,0-.3-1.44l-2-6.56h-3.68l4.38,10.75-.57,1.34a1.8,1.8,0,0,1-1.84,1.25,2.69,2.69,0,0,1-1.44-.39v2.65a5.63,5.63,0,0,0,2,.28q3.18,0,4.75-4.2l4.38-11.64h-3.29Zm24-6.08a4.61,4.61,0,0,1-1.64,3.67,6.47,6.47,0,0,1-4.37,1.41H327v5.2h-3.4V95.83h5.32c3.78,0,5.67,1.61,5.67,4.81Zm-3.58.12c0-1.55-.91-2.32-2.72-2.32H327v4.7h1.33c1.77,0,2.68-.77,2.68-2.36Zm13.85.52a5.45,5.45,0,0,1,1.29,3.8v1.4h-7c.11,1.56,1.1,2.34,3,2.34a5.72,5.72,0,0,0,3.12-.84v2.4a8.13,8.13,0,0,1-3.88.8,5,5,0,0,1-5.49-4.45,4.44,4.44,0,0,1,0-1,5.74,5.74,0,0,1,1.44-4.22,5.2,5.2,0,0,1,3.84-1.57,4.68,4.68,0,0,1,3.64,1.39Zm-1.83,3.2c0-1.54-.63-2.31-1.88-2.31a1.83,1.83,0,0,0-1.38.66,3,3,0,0,0-.71,1.65Zm14.55-3a5.36,5.36,0,0,1,1.53,4,5.69,5.69,0,0,1-1.58,4.24,5.83,5.83,0,0,1-4.31,1.56,5.74,5.74,0,0,1-4.23-1.51,6.24,6.24,0,0,1,.06-8.28,6,6,0,0,1,4.32-1.51,5.75,5.75,0,0,1,4.21,1.43Zm-1.86,4c0-2-.81-3-2.41-3a2.18,2.18,0,0,0-1.83.81,3.5,3.5,0,0,0-.65,2.3c0,2.07.83,3.1,2.5,3.1S355.72,107.57,355.72,105.46Zm15.61-4.13a6.16,6.16,0,0,1,1.12,3.89,6.6,6.6,0,0,1-1.33,4.33,4.32,4.32,0,0,1-3.54,1.63,3.34,3.34,0,0,1-3-1.52h0v6.21h-3.33V100.14h3.33v1.62h0a4.26,4.26,0,0,1,6.7-.45Zm-2.27,4c0-1.9-.74-2.85-2.21-2.85a2.1,2.1,0,0,0-1.67.78,3,3,0,0,0-.65,2v.87a2.71,2.71,0,0,0,.59,1.82,1.93,1.93,0,0,0,1.55.7,2,2,0,0,0,1.76-.88,4.22,4.22,0,0,0,.63-2.5Zm5.57,5.65H378V95h-3.32Zm15.82-4.52h-7c.11,1.56,1.1,2.34,3,2.34a5.72,5.72,0,0,0,3.12-.84v2.4a8.13,8.13,0,0,1-3.88.8,5,5,0,0,1-5.49-4.45,4.44,4.44,0,0,1,0-1,5.76,5.76,0,0,1,1.46-4.22,5.2,5.2,0,0,1,3.84-1.57,4.71,4.71,0,0,1,3.64,1.4,5.45,5.45,0,0,1,1.29,3.8Zm-3.08-2c0-1.54-.63-2.31-1.88-2.31a1.83,1.83,0,0,0-1.38.66,3,3,0,0,0-.71,1.65Z"/></g></g></g></g></svg>