<svg xmlns="http://www.w3.org/2000/svg" viewBox="0 0 460.59 130.47"><defs><style>.cls-1{fill:none;}.cls-2{fill:#6bb741;}.cls-3{fill:#0d9594;}</style></defs><g id="Layer_2" data-name="Layer 2"><g id="Layer_1-2" data-name="Layer 1"><rect class="cls-1" width="460.59" height="130.47"/><g id="Layer_2-2" data-name="Layer 2"><g id="Layer_1-2-2" data-name="Layer 1-2"><path class="cls-2" d="M158.11,103.46q-2-4.58-4-9.13c-1.25-2.82-2.46-5.64-3.73-8.45a3.45,3.45,0,0,0-3.28-2.24c-2.15,0-3.17.69-4.13,2.86l-2.07,4.94c-1.87,4.4-3.78,8.8-5.62,13.21-.64,1.52-.22,2.76,1.14,3.22,1.63.57,2.69.21,3.33-1.29.52-1.22,1.07-2.42,1.52-3.66a1.14,1.14,0,0,1,1.3-.9c1.38.07,2.81,0,4.22,0h4.54a.91.91,0,0,1,1,.69,27.53,27.53,0,0,0,2,4.36,2.48,2.48,0,0,0,3.16.8,2.19,2.19,0,0,0,1.3-2.71A12.89,12.89,0,0,0,158.11,103.46Zm-14.64-5c-.33,0-.46-.08-.32-.43l3.61-9.25c1.32,3.32,2.56,6.45,3.85,9.68-2.47,0-4.8,0-7.14,0Zm140.7-14.78c-1.51,0-2.28.75-2.34,2.37v6.54c-.12,0-.15,0-.17,0l-.33-.24a8.17,8.17,0,0,0-4.64-2.11,7.63,7.63,0,0,0-8.84,6.1,11.81,11.81,0,0,0,0,5.09c.64,3,2.15,5.35,5.19,6.3a7.83,7.83,0,0,0,8.18-1.88,7.79,7.79,0,0,1,.59-.52,4.67,4.67,0,0,0,.05.69,2.07,2.07,0,0,0,2.07,2.07h.17c1.51,0,2.29-.8,2.29-2.48V86C286.34,84.41,285.65,83.64,284.17,83.64Zm-2.95,17.78a4.38,4.38,0,0,1-8.44.11,7.62,7.62,0,0,1,.16-5.26,4.07,4.07,0,0,1,3.66-2.75,4.22,4.22,0,0,1,4.13,2.31,6.14,6.14,0,0,1,.78,3.33,7.2,7.2,0,0,1-.29,2.26Zm12.41-9.6c-3.16,2.33-4.35,7.4-2.59,11.3a7.24,7.24,0,0,0,4.13,4.06c3.8,1.38,7.55,1.38,11.09-.82a4.32,4.32,0,0,0,1.92-2.38,1.38,1.38,0,0,0-.72-1.81,1.26,1.26,0,0,0-.57-.11,2.11,2.11,0,0,0-1.74.58,10.53,10.53,0,0,1-3,2.13,4.8,4.8,0,0,1-6.89-3.78c-.07-.55,0-.79.69-.77,1.54,0,3.09,0,4.63,0h4.38a8,8,0,0,0,2.12-.31,1.86,1.86,0,0,0,1.45-1.79,6.89,6.89,0,0,0-2.37-5.86c-3.15-2.94-9.47-2.68-12.51-.44Zm9.65,5.87h-7.45c-.38,0-.62,0-.54-.54a4.29,4.29,0,0,1,8.57.09c0,.5-.29.45-.6.45ZM244.39,91.1a11,11,0,0,0-5.57-.9c-3.33.22-6.2,1.42-7.72,4.54a9.18,9.18,0,0,0,.53,9.65c1.88,2.76,4.72,3.73,8.23,3.71,4.62.17,9-2.76,9.34-8.32.21-3.65-1.26-7-4.82-8.68Zm-.3,10.34a4.46,4.46,0,0,1-4.37,3.37,4.33,4.33,0,0,1-4.43-3.24,7.8,7.8,0,0,1,.1-5.18,4.25,4.25,0,0,1,4.24-2.93,4.39,4.39,0,0,1,4.45,3.34,8.2,8.2,0,0,1,0,4.63Zm-26.67-5.83c.14,3.44.08,6.83,0,10.24a2.13,2.13,0,0,1-2,2.22,2.23,2.23,0,0,1-2.66-1.87,6.35,6.35,0,0,1-.09-1.07V97.86a9.12,9.12,0,0,0-.13-1.56c-.38-2.43-1.81-3.07-4.23-2.58a4,4,0,0,0-3.08,3.92c-.17,2.47-.07,5-.1,7.44a7.74,7.74,0,0,1-.05,1.06,2.12,2.12,0,0,1-2.27,1.93,2.16,2.16,0,0,1-2.36-1.84,6.36,6.36,0,0,1-.08-1.15V92.24c.11-1.33.79-2.07,2-2.12a2.11,2.11,0,0,1,2.43,1.76.68.68,0,0,1,0,.14c0,.24.07.49.12.88a7.77,7.77,0,0,1,7.67-2.64C215.58,90.8,217.33,92.63,217.42,95.61Zm48.51-2.14a2,2,0,0,1-2.22,1,14.13,14.13,0,0,0-2.49-.52,2.68,2.68,0,0,0-2.76,1.74,14.75,14.75,0,0,0-.78,5.43c-.05,1.49,0,3,0,4.46A2.37,2.37,0,0,1,253,106a4,4,0,0,1-.07-.69V93.13a6.39,6.39,0,0,1,.11-1,2.26,2.26,0,0,1,4.48-.1c0,.17,0,.33.07.69l.53-.69a5.18,5.18,0,0,1,7.2-.85,1.78,1.78,0,0,1,.67,2.27Zm-89.11-7.34v19.4a2.25,2.25,0,0,1-2.64,2.52,2.06,2.06,0,0,1-2-1.57,5.42,5.42,0,0,1-.16-1.55v-19a2.4,2.4,0,1,1,4.8.21Zm-9.7,9.81v9.58a2.24,2.24,0,0,1-2.54,2.55c-1.38,0-2.23-1-2.24-2.61V86.29c0-1.85.88-2.76,2.59-2.66A2.17,2.17,0,0,1,167.11,86c0,2.18,0,4.35,0,6.53Zm158.4-2.44a1.94,1.94,0,0,1-2.07,1c-.64-.14-1.27-.33-1.92-.46A2.84,2.84,0,0,0,318,95.94a1.21,1.21,0,0,1-.05.18,11,11,0,0,0-.53,3.17c0,2.11-.06,4.23-.1,6.35a2.21,2.21,0,0,1-2.47,2.44,2.12,2.12,0,0,1-2.23-2V106c-.07-1-.05-2-.05-3,0-3.52,0-7,.05-10.56a2.12,2.12,0,0,1,2.47-2.32,1.93,1.93,0,0,1,2,1.64c.06.26,0,.55.23.81l.56-.69a5.23,5.23,0,0,1,7.23-.57A1.8,1.8,0,0,1,325.52,93.5Zm-130-.86v12.88c0,1.54-.78,2.47-2.11,2.55a2.17,2.17,0,0,1-2.6-2.29c-.21-3.22-.06-6.44-.08-9.65a30.13,30.13,0,0,1,.07-3.8,2.21,2.21,0,0,1,2.2-2.21,2.53,2.53,0,0,1,2.52,2.52Zm0-6.73a2.05,2.05,0,0,1-2.33,2.16A2.15,2.15,0,0,1,190.77,86,2.21,2.21,0,0,1,193,83.83h.14C194.68,83.79,195.54,84.56,195.54,85.91Z"/><path class="cls-3" d="M51.11,35.69a21.11,21.11,0,0,1,3.62-3.45c5.51-3.85,11.32-4.42,17.4-1.6a12.09,12.09,0,0,1,5.08,5.06l1.11-1.23a16.79,16.79,0,0,1,19.94-3.86A11.36,11.36,0,0,1,104.72,40a46.24,46.24,0,0,1,.33,5.76V68.05a7.12,7.12,0,0,1-1.51,4.87,5.64,5.64,0,0,1-6.2,1.63c-2.33-.65-3.44-2.48-3.88-4.79a13.61,13.61,0,0,1-.16-2.3V46.13a17.7,17.7,0,0,0-.34-3.7c-.86-4-3.81-5.51-7.75-4.39-3.56,1-5.51,3.63-6.1,7.27a45.44,45.44,0,0,0-.49,6.89V68.05a7.16,7.16,0,0,1-1.48,4.83,5.68,5.68,0,0,1-6,1.72c-2.3-.55-3.4-2.18-3.9-4.35a12.83,12.83,0,0,1-.25-2.76V49.28c0-1.91-.06-3.8-.24-5.7-.39-4.41-2.75-6.32-7.13-5.81-3.29.37-5.51,2-6.44,5.27A32.58,32.58,0,0,0,52,52.09v16a7.58,7.58,0,0,1-1.32,4.61,5.37,5.37,0,0,1-5.81,2c-2.41-.46-3.73-2.15-4.28-4.47a11.82,11.82,0,0,1-.24-2.72V35.66a10.06,10.06,0,0,1,.39-3.18,5,5,0,0,1,5.51-3.58A5.17,5.17,0,0,1,51,33.24,14.34,14.34,0,0,1,51.11,35.69Zm173.51-2.35a13.82,13.82,0,0,1,.17,2.31v48a14.48,14.48,0,0,1-.51,4.25,5.36,5.36,0,0,1-6.71,3.53,5,5,0,0,1-1.41-.68,3.83,3.83,0,0,1-1.43-2.06,12.67,12.67,0,0,1-.69-4.23V68.26c-.92.79-1.7,1.51-2.53,2.17-5.9,4.65-12.4,5.75-19.37,2.86a16.92,16.92,0,0,1-9.35-9.78c-3.19-8-3.28-16.18.34-24.07C186.28,32.55,192,29.1,199.55,29A16.06,16.06,0,0,1,213.72,36l.15.19.16,0a13.37,13.37,0,0,1,.29-3.4c.68-2.7,2.61-4.07,5.51-4A5,5,0,0,1,224.62,33.34ZM213.56,51.65a18,18,0,0,0-1.51-7.8c-1.74-3.79-4.55-6.21-8.84-6.46-4.49-.29-7.54,2-9.55,5.78A16.77,16.77,0,0,0,192,50.34a19.66,19.66,0,0,0,1.88,10.18,9.78,9.78,0,0,0,17.12.95A17.25,17.25,0,0,0,213.56,51.65ZM328,68.83a4.33,4.33,0,0,1-2.07,5.1,4.83,4.83,0,0,1-5.78-.11,15.79,15.79,0,0,1-3.26-3.7c-.35-.52-.68-1.05-1.06-1.6a33.65,33.65,0,0,1-7.49,4.54,20.36,20.36,0,0,1-15.22.69A12.31,12.31,0,0,1,286,56.89c1.78-3.78,5-5.91,8.92-6.89s7.73-1.68,11.61-2.51c2.71-.58,5.39-1.3,8.07-2.07.41-.11.58-.27.53-.73a20.59,20.59,0,0,0-.69-3.81,5.25,5.25,0,0,0-4.5-4,19.81,19.81,0,0,0-7.71.2,9.08,9.08,0,0,0-5.41,4c-.74,1-1.46,2.13-2.19,3.2a2.09,2.09,0,0,1-1.38.93,5.84,5.84,0,0,1-4.38-.64c-1.8-1.12-2.38-2.94-1.8-5.38a11.05,11.05,0,0,1,4.89-6.7,21.59,21.59,0,0,1,9.92-3.43,41,41,0,0,1,14.35.74c4.6,1.12,7.84,3.88,9.1,8.59a22.82,22.82,0,0,1,.86,5.87c0,4.54.07,9.09,0,13.63a30.07,30.07,0,0,0,1.6,9.73Zm-13-16.63c-1.58.44-3.09.88-4.61,1.25-3.1.73-6.24,1.33-9.32,2.17-2.11.57-4,1.67-4.71,4a6,6,0,0,0,4.13,7.4,11,11,0,0,0,6.6-.18c4-1.26,6.84-3.71,7.58-8.08a32.57,32.57,0,0,0,.33-6.54Zm100.57-4.13a10.31,10.31,0,0,1-.21,2.07c-.48,2.69-2.45,3.68-4.82,4.13a19.19,19.19,0,0,1-3.7.37H385c-.6,0-.8.09-.75.76.27,3.86,1.46,7.31,4.58,9.79,3.44,2.75,8.7,2.93,12.78.59a32.92,32.92,0,0,0,6.45-5.26,4.32,4.32,0,0,1,4.51-1,3.45,3.45,0,0,1,2.34,4.25,11.49,11.49,0,0,1-4.49,6.53,20.85,20.85,0,0,1-10.5,4.28,29.9,29.9,0,0,1-13.16-1A18.88,18.88,0,0,1,374.21,61.4a28.21,28.21,0,0,1,.24-19.65c2.6-6.89,7.7-10.93,14.84-12.36,5.08-1,10.19-.92,15,1.29C411.64,34,415.38,39.93,415.63,48Zm-11-.53a19.64,19.64,0,0,0-.74-3.8c-1.22-3.84-3.69-6.36-7.78-6.89-3.86-.52-7.15.58-9.45,3.89a15.54,15.54,0,0,0-2.34,6.72c-.1.63,0,.78.69.78h19c.5-.08.71-.08.64-.73Zm-128.72-14A5.16,5.16,0,0,0,271,28.9c-3.1-.18-5.19,1.27-5.95,4.1a11.52,11.52,0,0,0-.29,2.87c-.09,6.89.24,13.78-.3,20.67a9.75,9.75,0,0,1-7.64,9.21c-4.35,1-7.87-.69-9.08-5.33a19,19,0,0,1-.63-4.74c0-6.6,0-13.22,0-19.83a11.14,11.14,0,0,0-.32-2.87c-.69-2.66-2.69-4.09-5.66-4A5,5,0,0,0,236,33.09a10.74,10.74,0,0,0-.29,2.46V57.29a39.38,39.38,0,0,0,.32,5.43c.49,3.58,1.8,6.74,4.77,9a14.42,14.42,0,0,0,8.09,3c4.48.27,8.66-.55,12.29-3.38a27.29,27.29,0,0,0,4.23-4.23,17.7,17.7,0,0,0,.22,3.49,5,5,0,0,0,3.78,4.07,4.91,4.91,0,0,0,5.24-1.55,7,7,0,0,0,1.38-4.74V35.64A14.2,14.2,0,0,0,275.88,33.58ZM169.29,51.87a24.1,24.1,0,0,0-6.76-3.39c-3.41-1.17-7-1.82-10.42-2.82a14.14,14.14,0,0,1-4.88-2.15,3.55,3.55,0,0,1-1.35-1.92A3.75,3.75,0,0,1,148,37.27c3-1.72,9.14-2.12,12.44,2.25A19.73,19.73,0,0,0,163,42.4a5.56,5.56,0,0,0,6.37.59,3.88,3.88,0,0,0,1.8-2.41,5.6,5.6,0,0,0-.69-4.37,12.55,12.55,0,0,0-6.27-5.27,33.53,33.53,0,0,0-15.5-1.83,17.67,17.67,0,0,0-9.64,4.21c-3.75,3.36-5,9.06-2.84,13.25A12.37,12.37,0,0,0,142,51.89a53.38,53.38,0,0,0,11.47,3.85A31.91,31.91,0,0,1,160,58c2.53,1.26,3.81,5.51.6,7.74a7.51,7.51,0,0,1-1.95,1c-4.7,1.44-11.12.9-14.43-5a13.27,13.27,0,0,0-1.3-2,4.59,4.59,0,0,0-8.06,2.85,8.09,8.09,0,0,0,.87,3.74A13.18,13.18,0,0,0,143.32,73a30.19,30.19,0,0,0,21.8-.1,12.38,12.38,0,0,0,8.33-10.6C174,58,172.79,54.5,169.29,51.87ZM366.55,31.48a13.94,13.94,0,0,0-7.85-2.62,9,9,0,0,0-8,3.75c-.73,1-1.38,2-2.15,3.11a16.15,16.15,0,0,0-.57-3.45,4.46,4.46,0,0,0-4.5-3.44c-2.76-.06-4.39,1-5.25,3.24a12.35,12.35,0,0,0-.65,4.39V67.84a11.29,11.29,0,0,0,.2,2.39,5.41,5.41,0,0,0,4.34,4.52A5.51,5.51,0,0,0,348,72.14a7.92,7.92,0,0,0,.88-4c0-5.88-.18-11.78.3-17.66a22.8,22.8,0,0,1,1.78-8c1.38-2.95,3.67-4.13,6.9-3.81a31,31,0,0,1,5.1,1.28,4.09,4.09,0,0,0,3.6-.62,4.72,4.72,0,0,0,1.31-6.54A4.87,4.87,0,0,0,366.55,31.48Zm60,1.61a5.63,5.63,0,1,1-5.65-5.6h0a5.63,5.63,0,0,1,5.63,5.6Zm-1.16.07a4.47,4.47,0,1,0-4.52,4.41h0a4.46,4.46,0,0,0,4.51-4.41Zm-2.38,2a.54.54,0,0,1,0,.18.27.27,0,0,1-.06.17.29.29,0,0,1-.13.14.32.32,0,0,1-.17.09.28.28,0,0,1-.18,0,.34.34,0,0,1-.17,0,.58.58,0,0,1-.14-.13l-.81-1.24a3.1,3.1,0,0,1-.45,0h-.83v.9a.61.61,0,0,1,0,.19.86.86,0,0,1-.1.16.51.51,0,0,1-.55.1.49.49,0,0,1-.15-.1.54.54,0,0,1-.1-.16.65.65,0,0,1,0-.19V30.93a.43.43,0,0,0,0-.16v-.24a.09.09,0,0,1,.06-.06l.1,0H421a2.05,2.05,0,0,1,.81.16,2.13,2.13,0,0,1,.69.42,2.09,2.09,0,0,1,.46.64,1.81,1.81,0,0,1,.17.79,1.74,1.74,0,0,1-.17.78,2,2,0,0,1-.46.61,1.49,1.49,0,0,1-.2.15l.74,1a.33.33,0,0,1,0,.14Zm-2.11-1.64a1.33,1.33,0,0,0,.45-.08,1.07,1.07,0,0,0,.37-.22.94.94,0,0,0,.25-.34.81.81,0,0,0,.09-.44A1.12,1.12,0,0,0,422,32a1.15,1.15,0,0,0-.25-.37,1.21,1.21,0,0,0-.37-.25,1.13,1.13,0,0,0-.45-.09H420v2.23Z"/></g></g></g></g></svg>